<svg width="104" height="71" viewBox="0 0 104 71" fill="none" xmlns="http://www.w3.org/2000/svg">
<path d="M58.856 9.8V35H56.264V12.104H50.324V9.8H58.856ZM82.0878 32.696V35H64.4118V33.164L74.8878 22.904C76.2078 21.608 77.0958 20.492 77.5518 19.556C78.0318 18.596 78.2718 17.636 78.2718 16.676C78.2718 15.188 77.7558 14.036 76.7238 13.22C75.7158 12.38 74.2638 11.96 72.3678 11.96C69.4158 11.96 67.1238 12.896 65.4918 14.768L63.6558 13.184C64.6398 12.032 65.8878 11.144 67.3998 10.52C68.9358 9.896 70.6638 9.584 72.5838 9.584C75.1518 9.584 77.1798 10.196 78.6678 11.42C80.1798 12.62 80.9358 14.276 80.9358 16.388C80.9358 17.684 80.6478 18.932 80.0718 20.132C79.4958 21.332 78.4038 22.712 76.7958 24.272L68.2278 32.696H82.0878ZM91.9648 20.132C95.6128 20.132 98.2648 20.792 99.9208 22.112C101.601 23.408 102.441 25.232 102.441 27.584C102.441 29.048 102.093 30.356 101.397 31.508C100.725 32.66 99.7048 33.572 98.3368 34.244C96.9688 34.892 95.2888 35.216 93.2968 35.216C91.4968 35.216 89.7808 34.928 88.1488 34.352C86.5408 33.752 85.2448 32.96 84.2608 31.976L85.5208 29.924C86.3608 30.788 87.4648 31.496 88.8328 32.048C90.2008 32.576 91.6768 32.84 93.2608 32.84C95.3488 32.84 96.9568 32.372 98.0848 31.436C99.2368 30.5 99.8128 29.252 99.8128 27.692C99.8128 25.964 99.1648 24.656 97.8688 23.768C96.5968 22.88 94.4368 22.436 91.3888 22.436H86.0248L87.3208 9.8H101.109V12.104H89.5888L88.7248 20.132H91.9648Z" fill="black"/>
<path d="M6.72 67.096C5.87733 67.096 5.09333 66.9573 4.368 66.68C3.65333 66.392 3.02933 65.992 2.496 65.48C1.97333 64.9573 1.56267 64.3547 1.264 63.672C0.976 62.9787 0.832 62.2213 0.832 61.4C0.832 60.5787 0.976 59.8267 1.264 59.144C1.56267 58.4507 1.97333 57.848 2.496 57.336C3.02933 56.8133 3.65333 56.4133 4.368 56.136C5.08267 55.848 5.86667 55.704 6.72 55.704C7.56267 55.704 8.34133 55.848 9.056 56.136C9.77067 56.4133 10.3893 56.808 10.912 57.32C11.4453 57.832 11.856 58.4347 12.144 59.128C12.4427 59.8213 12.592 60.5787 12.592 61.4C12.592 62.2213 12.4427 62.9787 12.144 63.672C11.856 64.3653 11.4453 64.968 10.912 65.48C10.3893 65.992 9.77067 66.392 9.056 66.68C8.34133 66.9573 7.56267 67.096 6.72 67.096ZM6.72 66.04C7.392 66.04 8.01067 65.928 8.576 65.704C9.152 65.4693 9.648 65.144 10.064 64.728C10.4907 64.3013 10.8213 63.8107 11.056 63.256C11.2907 62.6907 11.408 62.072 11.408 61.4C11.408 60.728 11.2907 60.1147 11.056 59.56C10.8213 58.9947 10.4907 58.504 10.064 58.088C9.648 57.6613 9.152 57.336 8.576 57.112C8.01067 56.8773 7.392 56.76 6.72 56.76C6.048 56.76 5.424 56.8773 4.848 57.112C4.272 57.336 3.77067 57.6613 3.344 58.088C2.928 58.504 2.59733 58.9947 2.352 59.56C2.11733 60.1147 2 60.728 2 61.4C2 62.0613 2.11733 62.6747 2.352 63.24C2.59733 63.8053 2.928 64.3013 3.344 64.728C3.77067 65.144 4.272 65.4693 4.848 65.704C5.424 65.928 6.048 66.04 6.72 66.04ZM18.4779 67.08C17.7632 67.08 17.1392 66.9467 16.6059 66.68C16.0725 66.4133 15.6565 66.0133 15.3579 65.48C15.0699 64.9467 14.9259 64.28 14.9259 63.48V58.6H16.0619V63.352C16.0619 64.248 16.2805 64.9253 16.7179 65.384C17.1659 65.832 17.7899 66.056 18.5899 66.056C19.1765 66.056 19.6832 65.9387 20.1099 65.704C20.5472 65.4587 20.8779 65.1067 21.1019 64.648C21.3365 64.1893 21.4539 63.64 21.4539 63V58.6H22.5899V67H21.5019V64.696L21.6779 65.112C21.4112 65.7307 20.9952 66.216 20.4299 66.568C19.8752 66.9093 19.2245 67.08 18.4779 67.08ZM25.7559 67V58.6H26.8439V60.888L26.7319 60.488C26.9665 59.848 27.3612 59.3627 27.9159 59.032C28.4705 58.6907 29.1585 58.52 29.9799 58.52V59.624C29.9372 59.624 29.8945 59.624 29.8519 59.624C29.8092 59.6133 29.7665 59.608 29.7239 59.608C28.8385 59.608 28.1452 59.88 27.6439 60.424C27.1425 60.9573 26.8919 61.72 26.8919 62.712V67H25.7559ZM40.7013 67.08C39.9759 67.08 39.3199 66.9147 38.7333 66.584C38.1466 66.2427 37.6773 65.7573 37.3253 65.128C36.9839 64.488 36.8133 63.7093 36.8133 62.792C36.8133 61.8747 36.9839 61.1013 37.3253 60.472C37.6666 59.832 38.1306 59.3467 38.7173 59.016C39.3039 58.6853 39.9653 58.52 40.7013 58.52C41.5013 58.52 42.2159 58.7013 42.8453 59.064C43.4853 59.416 43.9866 59.9173 44.3493 60.568C44.7119 61.208 44.8933 61.9493 44.8933 62.792C44.8933 63.6453 44.7119 64.392 44.3493 65.032C43.9866 65.672 43.4853 66.1733 42.8453 66.536C42.2159 66.8987 41.5013 67.08 40.7013 67.08ZM36.3653 70.104V58.6H37.4533V61.128L37.3413 62.808L37.5013 64.504V70.104H36.3653ZM40.6213 66.072C41.2186 66.072 41.7519 65.9387 42.2213 65.672C42.6906 65.3947 43.0639 65.0107 43.3413 64.52C43.6186 64.0187 43.7573 63.4427 43.7573 62.792C43.7573 62.1413 43.6186 61.5707 43.3413 61.08C43.0639 60.5893 42.6906 60.2053 42.2213 59.928C41.7519 59.6507 41.2186 59.512 40.6213 59.512C40.0239 59.512 39.4853 59.6507 39.0052 59.928C38.5359 60.2053 38.1626 60.5893 37.8853 61.08C37.6186 61.5707 37.4853 62.1413 37.4853 62.792C37.4853 63.4427 37.6186 64.0187 37.8853 64.52C38.1626 65.0107 38.5359 65.3947 39.0052 65.672C39.4853 65.9387 40.0239 66.072 40.6213 66.072ZM47.209 67V58.6H48.297V60.888L48.185 60.488C48.4197 59.848 48.8143 59.3627 49.369 59.032C49.9237 58.6907 50.6117 58.52 51.433 58.52V59.624C51.3903 59.624 51.3477 59.624 51.305 59.624C51.2623 59.6133 51.2197 59.608 51.177 59.608C50.2917 59.608 49.5983 59.88 49.097 60.424C48.5957 60.9573 48.345 61.72 48.345 62.712V67H47.209ZM56.8518 67.08C56.0411 67.08 55.3104 66.8987 54.6598 66.536C54.0198 66.1627 53.5131 65.656 53.1398 65.016C52.7664 64.3653 52.5798 63.624 52.5798 62.792C52.5798 61.9493 52.7664 61.208 53.1398 60.568C53.5131 59.928 54.0198 59.4267 54.6598 59.064C55.2998 58.7013 56.0304 58.52 56.8518 58.52C57.6838 58.52 58.4198 58.7013 59.0598 59.064C59.7104 59.4267 60.2171 59.928 60.5798 60.568C60.9531 61.208 61.1398 61.9493 61.1398 62.792C61.1398 63.624 60.9531 64.3653 60.5798 65.016C60.2171 65.656 59.7104 66.1627 59.0598 66.536C58.4091 66.8987 57.6731 67.08 56.8518 67.08ZM56.8518 66.072C57.4598 66.072 57.9984 65.9387 58.4678 65.672C58.9371 65.3947 59.3051 65.0107 59.5718 64.52C59.8491 64.0187 59.9878 63.4427 59.9878 62.792C59.9878 62.1307 59.8491 61.5547 59.5718 61.064C59.3051 60.5733 58.9371 60.1947 58.4678 59.928C57.9984 59.6507 57.4651 59.512 56.8678 59.512C56.2704 59.512 55.7371 59.6507 55.2678 59.928C54.7984 60.1947 54.4251 60.5733 54.1478 61.064C53.8704 61.5547 53.7318 62.1307 53.7318 62.792C53.7318 63.4427 53.8704 64.0187 54.1478 64.52C54.4251 65.0107 54.7984 65.3947 55.2678 65.672C55.7371 65.9387 56.2651 66.072 56.8518 66.072ZM62.211 70.184C61.8697 70.184 61.5443 70.136 61.235 70.04C60.915 69.9547 60.6483 69.8213 60.435 69.64L60.835 68.776C61.1763 69.064 61.6137 69.208 62.147 69.208C62.595 69.208 62.9363 69.0747 63.171 68.808C63.4163 68.5413 63.539 68.1467 63.539 67.624V58.6H64.675V67.624C64.675 68.4027 64.4617 69.0213 64.035 69.48C63.619 69.9493 63.011 70.184 62.211 70.184ZM64.115 56.744C63.8803 56.744 63.683 56.664 63.523 56.504C63.363 56.344 63.283 56.152 63.283 55.928C63.283 55.704 63.363 55.5173 63.523 55.368C63.683 55.208 63.8803 55.128 64.115 55.128C64.3497 55.128 64.547 55.2027 64.707 55.352C64.867 55.5013 64.947 55.688 64.947 55.912C64.947 56.1467 64.867 56.344 64.707 56.504C64.5577 56.664 64.3603 56.744 64.115 56.744ZM71.4176 67.08C70.543 67.08 69.775 66.8987 69.1136 66.536C68.4523 66.1627 67.935 65.656 67.5616 65.016C67.1883 64.3653 67.0016 63.624 67.0016 62.792C67.0016 61.96 67.1776 61.224 67.5296 60.584C67.8923 59.944 68.383 59.4427 69.0016 59.08C69.631 58.7067 70.335 58.52 71.1136 58.52C71.903 58.52 72.6016 58.7013 73.2096 59.064C73.8283 59.416 74.3136 59.9173 74.6656 60.568C75.0176 61.208 75.1936 61.9493 75.1936 62.792C75.1936 62.8453 75.1883 62.904 75.1776 62.968C75.1776 63.0213 75.1776 63.08 75.1776 63.144H67.8656V62.296H74.5696L74.1216 62.632C74.1216 62.024 73.9883 61.4853 73.7216 61.016C73.4656 60.536 73.1136 60.1627 72.6656 59.896C72.2176 59.6293 71.7003 59.496 71.1136 59.496C70.5376 59.496 70.0203 59.6293 69.5616 59.896C69.103 60.1627 68.7456 60.536 68.4896 61.016C68.2336 61.496 68.1056 62.0453 68.1056 62.664V62.84C68.1056 63.48 68.2443 64.0453 68.5216 64.536C68.8096 65.016 69.2043 65.3947 69.7056 65.672C70.2176 65.9387 70.799 66.072 71.4496 66.072C71.9616 66.072 72.4363 65.9813 72.8736 65.8C73.3216 65.6187 73.7056 65.3413 74.0256 64.968L74.6656 65.704C74.2923 66.152 73.823 66.4933 73.2576 66.728C72.703 66.9627 72.0896 67.08 71.4176 67.08ZM80.9939 67.08C80.1619 67.08 79.4152 66.8987 78.7539 66.536C78.1032 66.1627 77.5912 65.656 77.2179 65.016C76.8445 64.3653 76.6579 63.624 76.6579 62.792C76.6579 61.9493 76.8445 61.208 77.2179 60.568C77.5912 59.928 78.1032 59.4267 78.7539 59.064C79.4152 58.7013 80.1619 58.52 80.9939 58.52C81.7085 58.52 82.3539 58.6587 82.9299 58.936C83.5059 59.2133 83.9592 59.6293 84.2899 60.184L83.4419 60.76C83.1539 60.3333 82.7965 60.0187 82.3699 59.816C81.9432 59.6133 81.4792 59.512 80.9779 59.512C80.3805 59.512 79.8419 59.6507 79.3619 59.928C78.8819 60.1947 78.5032 60.5733 78.2259 61.064C77.9485 61.5547 77.8099 62.1307 77.8099 62.792C77.8099 63.4533 77.9485 64.0293 78.2259 64.52C78.5032 65.0107 78.8819 65.3947 79.3619 65.672C79.8419 65.9387 80.3805 66.072 80.9779 66.072C81.4792 66.072 81.9432 65.9707 82.3699 65.768C82.7965 65.5653 83.1539 65.256 83.4419 64.84L84.2899 65.416C83.9592 65.96 83.5059 66.376 82.9299 66.664C82.3539 66.9413 81.7085 67.08 80.9939 67.08ZM89.2713 67.08C88.4819 67.08 87.8739 66.8667 87.4473 66.44C87.0206 66.0133 86.8073 65.4107 86.8073 64.632V56.744H87.9433V64.568C87.9433 65.0587 88.0659 65.4373 88.3113 65.704C88.5673 65.9707 88.9299 66.104 89.3993 66.104C89.9006 66.104 90.3166 65.96 90.6473 65.672L91.0473 66.488C90.8233 66.6907 90.5513 66.84 90.2313 66.936C89.9219 67.032 89.6019 67.08 89.2713 67.08ZM85.3033 59.544V58.6H90.5033V59.544H85.3033ZM95.3713 67.08C94.6779 67.08 94.0219 66.984 93.4033 66.792C92.7846 66.5893 92.2993 66.3387 91.9473 66.04L92.4593 65.144C92.8006 65.4 93.2379 65.624 93.7713 65.816C94.3046 65.9973 94.8646 66.088 95.4513 66.088C96.2513 66.088 96.8273 65.9653 97.1793 65.72C97.5313 65.464 97.7073 65.128 97.7073 64.712C97.7073 64.4027 97.6059 64.1627 97.4033 63.992C97.2113 63.8107 96.9553 63.6773 96.6353 63.592C96.3153 63.496 95.9579 63.416 95.5633 63.352C95.1686 63.288 94.7739 63.2133 94.3793 63.128C93.9953 63.0427 93.6433 62.92 93.3233 62.76C93.0033 62.5893 92.7419 62.36 92.5393 62.072C92.3473 61.784 92.2513 61.4 92.2513 60.92C92.2513 60.4613 92.3793 60.0507 92.6353 59.688C92.8913 59.3253 93.2646 59.0427 93.7553 58.84C94.2566 58.6267 94.8646 58.52 95.5793 58.52C96.1233 58.52 96.6673 58.5947 97.2113 58.744C97.7553 58.8827 98.2033 59.0693 98.5553 59.304L98.0593 60.216C97.6859 59.96 97.2859 59.7787 96.8593 59.672C96.4326 59.5547 96.0059 59.496 95.5793 59.496C94.8219 59.496 94.2619 59.6293 93.8993 59.896C93.5473 60.152 93.3713 60.4827 93.3713 60.888C93.3713 61.208 93.4673 61.4587 93.6593 61.64C93.8619 61.8213 94.1233 61.9653 94.4433 62.072C94.7739 62.168 95.1313 62.248 95.5153 62.312C95.9099 62.376 96.2993 62.456 96.6833 62.552C97.0779 62.6373 97.4353 62.76 97.7553 62.92C98.0859 63.0693 98.3473 63.288 98.5393 63.576C98.7419 63.8533 98.8433 64.2213 98.8433 64.68C98.8433 65.1707 98.7046 65.5973 98.4273 65.96C98.1606 66.312 97.7659 66.5893 97.2433 66.792C96.7313 66.984 96.1073 67.08 95.3713 67.08Z" fill="#999999"/>
<path d="M11.8364 28.0235C11.7231 28.0235 11.609 27.9845 11.5158 27.9052L8.31084 25.1762C8.20029 25.082 8.13672 24.9443 8.13672 24.799C8.13672 24.6539 8.20056 24.5162 8.31084 24.422L11.5158 21.693C11.7239 21.5155 12.0365 21.5407 12.214 21.7488C12.3911 21.9572 12.3663 22.2698 12.1579 22.4469L9.39594 24.799L12.1579 27.151C12.3663 27.3284 12.3911 27.641 12.214 27.8491C12.1159 27.9644 11.9766 28.0235 11.8364 28.0235Z" fill="#4985FF"/>
<path d="M18.1635 28.0235C18.0234 28.0235 17.8841 27.9644 17.7862 27.8491C17.6088 27.641 17.6339 27.3284 17.8421 27.151L20.604 24.799L17.8421 22.4469C17.6339 22.2698 17.6088 21.9572 17.7862 21.7488C17.9634 21.5407 18.2763 21.5155 18.4841 21.693L21.6891 24.422C21.7996 24.5162 21.8632 24.6539 21.8632 24.799C21.8632 24.9443 21.7996 25.082 21.6891 25.1762L18.4841 27.9052C18.391 27.9845 18.2768 28.0235 18.1635 28.0235Z" fill="#4985FF"/>
<path d="M13.8652 30.0706C13.8312 30.0706 13.7969 30.067 13.7624 30.0598C13.4949 30.0034 13.3235 29.7406 13.3799 29.473L15.3773 19.9894C15.4337 19.7219 15.6963 19.5505 15.9641 19.6069C16.2317 19.6633 16.403 19.9259 16.3466 20.1937L14.3492 29.6773C14.3 29.9105 14.0943 30.0706 13.8652 30.0706Z" fill="#4985FF"/>
<path d="M26.6745 35.2374H3.32547C1.49193 35.2374 0 33.7457 0 31.9119V12.0945C0 10.261 1.49193 8.76904 3.32547 8.76904H26.6745C28.5081 8.76904 30 10.261 30 12.0945V31.9119C30 33.7457 28.5081 35.2374 26.6745 35.2374ZM3.32547 9.75961C2.03807 9.75961 0.990566 10.8071 0.990566 12.0945V31.9119C0.990566 33.1993 2.03807 34.2468 3.32547 34.2468H26.6745C27.9619 34.2468 29.0094 33.1993 29.0094 31.9119V12.0945C29.0094 10.8071 27.9619 9.75961 26.6745 9.75961H3.32547Z" fill="#4985FF"/>
<path d="M29.5047 16.6996H0.495283C0.221661 16.6996 0 16.4779 0 16.2043C0 15.9309 0.221661 15.709 0.495283 15.709H29.5047C29.7783 15.709 30 15.9309 30 16.2043C30 16.4779 29.7783 16.6996 29.5047 16.6996Z" fill="#4985FF"/>
<path d="M8.46191 14.3296C7.59793 14.3296 6.89453 13.6262 6.89453 12.7622C6.89453 11.8979 7.59793 11.1948 8.46191 11.1948C9.32617 11.1948 10.0293 11.8979 10.0293 12.7622C10.0293 13.6262 9.32617 14.3296 8.46191 14.3296ZM8.46191 12.1854C8.14407 12.1854 7.8851 12.4441 7.8851 12.7622C7.8851 13.0803 8.14407 13.339 8.46191 13.339C8.78003 13.339 9.03873 13.0803 9.03873 12.7622C9.03873 12.4441 8.78003 12.1854 8.46191 12.1854Z" fill="#4985FF"/>
<path d="M3.64746 14.3145C2.7832 14.3145 2.08008 13.6113 2.08008 12.7471C2.08008 11.8828 2.7832 11.1797 3.64746 11.1797C4.51171 11.1797 5.21484 11.8828 5.21484 12.7471C5.21484 13.6113 4.51171 14.3145 3.64746 14.3145ZM3.64746 12.1703C3.32962 12.1703 3.07064 12.4292 3.07064 12.7471C3.07064 13.0652 3.32962 13.3239 3.64746 13.3239C3.96558 13.3239 4.22427 13.0652 4.22427 12.7471C4.22427 12.4292 3.96558 12.1703 3.64746 12.1703Z" fill="#4985FF"/>
<path d="M13.278 14.3445C12.4141 14.3445 11.7109 13.6413 11.7109 12.7771C11.7109 11.9131 12.4141 11.21 13.278 11.21C14.1423 11.21 14.8454 11.9131 14.8454 12.7771C14.8454 13.6413 14.1423 14.3445 13.278 14.3445ZM13.278 12.2003C12.9602 12.2003 12.7015 12.4589 12.7015 12.7771C12.7015 13.0952 12.9602 13.3539 13.278 13.3539C13.5962 13.3539 13.8549 13.0952 13.8549 12.7771C13.8549 12.4589 13.5962 12.2003 13.278 12.2003Z" fill="#4985FF"/>
</svg>
